<mxfile host="app.diagrams.net" modified="2022-05-18T18:30:07.062Z" agent="5.0 (Windows NT 10.0; Win64; x64) AppleWebKit/537.36 (KHTML, like Gecko) Chrome/101.0.4951.54 Safari/537.36" etag="jV-zgv6D91oTWLFDK2t9" version="18.0.7" type="github">
  <diagram id="NWE-WzzM5gE8fmPCcb4x" name="Page-1">
    <mxGraphModel dx="1038" dy="579" grid="1" gridSize="10" guides="1" tooltips="1" connect="1" arrows="1" fold="1" page="1" pageScale="1" pageWidth="850" pageHeight="1100" math="0" shadow="0">
      <root>
        <mxCell id="0" />
        <mxCell id="1" parent="0" />
        <mxCell id="bavvKywP6-cDirn1sBw_-12" value="ConnectionDB" style="swimlane;fontStyle=1;align=center;verticalAlign=top;childLayout=stackLayout;horizontal=1;startSize=26;horizontalStack=0;resizeParent=1;resizeParentMax=0;resizeLast=0;collapsible=1;marginBottom=0;" parent="1" vertex="1">
          <mxGeometry x="20" y="136" width="160" height="104" as="geometry" />
        </mxCell>
        <mxCell id="bavvKywP6-cDirn1sBw_-13" value="+DB : Database&#xa;+Conn : Connection" style="text;strokeColor=none;fillColor=none;align=left;verticalAlign=top;spacingLeft=4;spacingRight=4;overflow=hidden;rotatable=0;points=[[0,0.5],[1,0.5]];portConstraint=eastwest;" parent="bavvKywP6-cDirn1sBw_-12" vertex="1">
          <mxGeometry y="26" width="160" height="44" as="geometry" />
        </mxCell>
        <mxCell id="bavvKywP6-cDirn1sBw_-14" value="" style="line;strokeWidth=1;fillColor=none;align=left;verticalAlign=middle;spacingTop=-1;spacingLeft=3;spacingRight=3;rotatable=0;labelPosition=right;points=[];portConstraint=eastwest;" parent="bavvKywP6-cDirn1sBw_-12" vertex="1">
          <mxGeometry y="70" width="160" height="8" as="geometry" />
        </mxCell>
        <mxCell id="bavvKywP6-cDirn1sBw_-15" value="+    Connect()" style="text;strokeColor=none;fillColor=none;align=left;verticalAlign=top;spacingLeft=4;spacingRight=4;overflow=hidden;rotatable=0;points=[[0,0.5],[1,0.5]];portConstraint=eastwest;" parent="bavvKywP6-cDirn1sBw_-12" vertex="1">
          <mxGeometry y="78" width="160" height="26" as="geometry" />
        </mxCell>
        <mxCell id="bavvKywP6-cDirn1sBw_-16" value="Admin" style="swimlane;fontStyle=1;align=center;verticalAlign=top;childLayout=stackLayout;horizontal=1;startSize=40;horizontalStack=0;resizeParent=1;resizeParentMax=0;resizeLast=0;collapsible=1;marginBottom=0;" parent="1" vertex="1">
          <mxGeometry x="230" y="180" width="220" height="364" as="geometry" />
        </mxCell>
        <mxCell id="bavvKywP6-cDirn1sBw_-17" value="+Username : String&#xa;+Password: String&#xa;+ ID : int" style="text;strokeColor=none;fillColor=none;align=left;verticalAlign=top;spacingLeft=4;spacingRight=4;overflow=hidden;rotatable=0;points=[[0,0.5],[1,0.5]];portConstraint=eastwest;" parent="bavvKywP6-cDirn1sBw_-16" vertex="1">
          <mxGeometry y="40" width="220" height="54" as="geometry" />
        </mxCell>
        <mxCell id="bavvKywP6-cDirn1sBw_-18" value="" style="line;strokeWidth=1;fillColor=none;align=left;verticalAlign=middle;spacingTop=-1;spacingLeft=3;spacingRight=3;rotatable=0;labelPosition=right;points=[];portConstraint=eastwest;" parent="bavvKywP6-cDirn1sBw_-16" vertex="1">
          <mxGeometry y="94" width="220" height="8" as="geometry" />
        </mxCell>
        <mxCell id="bavvKywP6-cDirn1sBw_-19" value="+ login()&#xa;+ AddSchedule()&#xa;+ EditSchedule()&#xa;+ DeleteSchedule()&#xa;+ AddEvent()&#xa;+ EditEvent()&#xa;+DeleteEvent()&#xa;+ AddWorkers()&#xa;+ EditWorkers()&#xa;+ DeleteWorkers()&#xa;+ AddSuppliers()&#xa;+ EditSupplers()&#xa;+ DeleteSuppliers()&#xa; + AddToPortfolio()&#xa;+ EditPortfolio()&#xa;+ DeleteFromPortfolio()&#xa;+ Logout()&#xa;&#xa;" style="text;strokeColor=none;fillColor=none;align=left;verticalAlign=top;spacingLeft=4;spacingRight=4;overflow=hidden;rotatable=0;points=[[0,0.5],[1,0.5]];portConstraint=eastwest;" parent="bavvKywP6-cDirn1sBw_-16" vertex="1">
          <mxGeometry y="102" width="220" height="262" as="geometry" />
        </mxCell>
        <mxCell id="bavvKywP6-cDirn1sBw_-24" value="Event" style="swimlane;fontStyle=1;align=center;verticalAlign=top;childLayout=stackLayout;horizontal=1;startSize=26;horizontalStack=0;resizeParent=1;resizeParentMax=0;resizeLast=0;collapsible=1;marginBottom=0;" parent="1" vertex="1">
          <mxGeometry x="600" y="266" width="160" height="278" as="geometry" />
        </mxCell>
        <mxCell id="bavvKywP6-cDirn1sBw_-25" value="+ EventID : int&#xa;+ Type : String &#xa;+ Location : String &#xa;+ Date : int&#xa;+ Time : int&#xa;+ Duration : int&#xa;+ Food : String&#xa;+ Equipment : String &#xa;+ Entertainment : String&#xa;+ SuppliersID : int  &#xa;" style="text;strokeColor=none;fillColor=none;align=left;verticalAlign=top;spacingLeft=4;spacingRight=4;overflow=hidden;rotatable=0;points=[[0,0.5],[1,0.5]];portConstraint=eastwest;" parent="bavvKywP6-cDirn1sBw_-24" vertex="1">
          <mxGeometry y="26" width="160" height="154" as="geometry" />
        </mxCell>
        <mxCell id="bavvKywP6-cDirn1sBw_-26" value="" style="line;strokeWidth=1;fillColor=none;align=left;verticalAlign=middle;spacingTop=-1;spacingLeft=3;spacingRight=3;rotatable=0;labelPosition=right;points=[];portConstraint=eastwest;" parent="bavvKywP6-cDirn1sBw_-24" vertex="1">
          <mxGeometry y="180" width="160" height="8" as="geometry" />
        </mxCell>
        <mxCell id="bavvKywP6-cDirn1sBw_-27" value="+ View()&#xa;+ AddEvent()&#xa;+ EditEvent()&#xa;+DeleteEvent()" style="text;strokeColor=none;fillColor=none;align=left;verticalAlign=top;spacingLeft=4;spacingRight=4;overflow=hidden;rotatable=0;points=[[0,0.5],[1,0.5]];portConstraint=eastwest;" parent="bavvKywP6-cDirn1sBw_-24" vertex="1">
          <mxGeometry y="188" width="160" height="90" as="geometry" />
        </mxCell>
        <mxCell id="bavvKywP6-cDirn1sBw_-29" value="Workers" style="swimlane;fontStyle=1;align=center;verticalAlign=top;childLayout=stackLayout;horizontal=1;startSize=26;horizontalStack=0;resizeParent=1;resizeParentMax=0;resizeLast=0;collapsible=1;marginBottom=0;" parent="1" vertex="1">
          <mxGeometry x="40" y="560" width="180" height="168" as="geometry" />
        </mxCell>
        <mxCell id="bavvKywP6-cDirn1sBw_-30" value="+ Name : String &#xa;+ Position : String &#xa;+ MobileNum : int&#xa; &#xa;" style="text;strokeColor=none;fillColor=none;align=left;verticalAlign=top;spacingLeft=4;spacingRight=4;overflow=hidden;rotatable=0;points=[[0,0.5],[1,0.5]];portConstraint=eastwest;" parent="bavvKywP6-cDirn1sBw_-29" vertex="1">
          <mxGeometry y="26" width="180" height="104" as="geometry" />
        </mxCell>
        <mxCell id="bavvKywP6-cDirn1sBw_-31" value="" style="line;strokeWidth=1;fillColor=none;align=left;verticalAlign=middle;spacingTop=-1;spacingLeft=3;spacingRight=3;rotatable=0;labelPosition=right;points=[];portConstraint=eastwest;" parent="bavvKywP6-cDirn1sBw_-29" vertex="1">
          <mxGeometry y="130" width="180" height="8" as="geometry" />
        </mxCell>
        <mxCell id="bavvKywP6-cDirn1sBw_-32" value="+ View()&#xa;&#xa;&#xa;&#xa;" style="text;strokeColor=none;fillColor=none;align=left;verticalAlign=top;spacingLeft=4;spacingRight=4;overflow=hidden;rotatable=0;points=[[0,0.5],[1,0.5]];portConstraint=eastwest;" parent="bavvKywP6-cDirn1sBw_-29" vertex="1">
          <mxGeometry y="138" width="180" height="30" as="geometry" />
        </mxCell>
        <mxCell id="bavvKywP6-cDirn1sBw_-33" value="Suppliers" style="swimlane;fontStyle=1;align=center;verticalAlign=top;childLayout=stackLayout;horizontal=1;startSize=26;horizontalStack=0;resizeParent=1;resizeParentMax=0;resizeLast=0;collapsible=1;marginBottom=0;" parent="1" vertex="1">
          <mxGeometry x="470" y="610" width="180" height="240" as="geometry" />
        </mxCell>
        <mxCell id="bavvKywP6-cDirn1sBw_-34" value="+ ID : int&#xa;+ Name : String &#xa;+ Location : String &#xa;+ MobileNum : int&#xa;+ Email : String&#xa;+ Supplies : String&#xa; &#xa;" style="text;strokeColor=none;fillColor=none;align=left;verticalAlign=top;spacingLeft=4;spacingRight=4;overflow=hidden;rotatable=0;points=[[0,0.5],[1,0.5]];portConstraint=eastwest;" parent="bavvKywP6-cDirn1sBw_-33" vertex="1">
          <mxGeometry y="26" width="180" height="104" as="geometry" />
        </mxCell>
        <mxCell id="bavvKywP6-cDirn1sBw_-35" value="" style="line;strokeWidth=1;fillColor=none;align=left;verticalAlign=middle;spacingTop=-1;spacingLeft=3;spacingRight=3;rotatable=0;labelPosition=right;points=[];portConstraint=eastwest;" parent="bavvKywP6-cDirn1sBw_-33" vertex="1">
          <mxGeometry y="130" width="180" height="8" as="geometry" />
        </mxCell>
        <mxCell id="bavvKywP6-cDirn1sBw_-36" value="+ View()&#xa;+ AddSuppliers()&#xa;+ EditSupplers()&#xa;+ DeleteSuppliers()&#xa;&#xa;&#xa;&#xa;" style="text;strokeColor=none;fillColor=none;align=left;verticalAlign=top;spacingLeft=4;spacingRight=4;overflow=hidden;rotatable=0;points=[[0,0.5],[1,0.5]];portConstraint=eastwest;" parent="bavvKywP6-cDirn1sBw_-33" vertex="1">
          <mxGeometry y="138" width="180" height="102" as="geometry" />
        </mxCell>
        <mxCell id="bavvKywP6-cDirn1sBw_-68" value="" style="endArrow=block;endSize=16;endFill=0;html=1;rounded=0;" parent="1" edge="1">
          <mxGeometry x="-1" y="300" width="160" relative="1" as="geometry">
            <mxPoint x="80" y="560" as="sourcePoint" />
            <mxPoint x="230" y="360" as="targetPoint" />
            <Array as="points">
              <mxPoint x="80" y="360" />
            </Array>
            <mxPoint x="30" y="130" as="offset" />
          </mxGeometry>
        </mxCell>
        <mxCell id="bavvKywP6-cDirn1sBw_-69" value="" style="endArrow=diamondThin;endFill=1;endSize=24;html=1;rounded=0;entryX=0.5;entryY=0;entryDx=0;entryDy=0;exitX=0.375;exitY=-0.002;exitDx=0;exitDy=0;exitPerimeter=0;" parent="1" source="bavvKywP6-cDirn1sBw_-16" target="bavvKywP6-cDirn1sBw_-12" edge="1">
          <mxGeometry width="160" relative="1" as="geometry">
            <mxPoint x="100" y="40" as="sourcePoint" />
            <mxPoint x="280" y="85.42855398995536" as="targetPoint" />
            <Array as="points">
              <mxPoint x="313" y="30" />
              <mxPoint x="100" y="30" />
            </Array>
          </mxGeometry>
        </mxCell>
        <mxCell id="bavvKywP6-cDirn1sBw_-70" value="Schedule " style="swimlane;fontStyle=1;align=center;verticalAlign=top;childLayout=stackLayout;horizontal=1;startSize=26;horizontalStack=0;resizeParent=1;resizeParentMax=0;resizeLast=0;collapsible=1;marginBottom=0;" parent="1" vertex="1">
          <mxGeometry x="580" y="30" width="160" height="160" as="geometry" />
        </mxCell>
        <mxCell id="bavvKywP6-cDirn1sBw_-71" value="+ Date : int " style="text;strokeColor=none;fillColor=none;align=left;verticalAlign=top;spacingLeft=4;spacingRight=4;overflow=hidden;rotatable=0;points=[[0,0.5],[1,0.5]];portConstraint=eastwest;" parent="bavvKywP6-cDirn1sBw_-70" vertex="1">
          <mxGeometry y="26" width="160" height="34" as="geometry" />
        </mxCell>
        <mxCell id="bavvKywP6-cDirn1sBw_-72" value="" style="line;strokeWidth=1;fillColor=none;align=left;verticalAlign=middle;spacingTop=-1;spacingLeft=3;spacingRight=3;rotatable=0;labelPosition=right;points=[];portConstraint=eastwest;" parent="bavvKywP6-cDirn1sBw_-70" vertex="1">
          <mxGeometry y="60" width="160" height="8" as="geometry" />
        </mxCell>
        <mxCell id="bavvKywP6-cDirn1sBw_-73" value="+ view()&#xa;+ AddSchedule()&#xa;+ EditSchedule()&#xa;+ DeleteSchedule()" style="text;strokeColor=none;fillColor=none;align=left;verticalAlign=top;spacingLeft=4;spacingRight=4;overflow=hidden;rotatable=0;points=[[0,0.5],[1,0.5]];portConstraint=eastwest;" parent="bavvKywP6-cDirn1sBw_-70" vertex="1">
          <mxGeometry y="68" width="160" height="92" as="geometry" />
        </mxCell>
        <mxCell id="bavvKywP6-cDirn1sBw_-76" value="" style="endArrow=diamondThin;endFill=1;endSize=24;html=1;rounded=0;entryX=0.821;entryY=0.933;entryDx=0;entryDy=0;entryPerimeter=0;exitX=0.681;exitY=0.001;exitDx=0;exitDy=0;exitPerimeter=0;" parent="1" source="bavvKywP6-cDirn1sBw_-24" target="bavvKywP6-cDirn1sBw_-73" edge="1">
          <mxGeometry width="160" relative="1" as="geometry">
            <mxPoint x="230" y="540" as="sourcePoint" />
            <mxPoint x="390" y="540" as="targetPoint" />
          </mxGeometry>
        </mxCell>
        <mxCell id="bavvKywP6-cDirn1sBw_-80" value="" style="endArrow=none;html=1;edgeStyle=orthogonalEdgeStyle;rounded=0;entryX=-0.012;entryY=0.693;entryDx=0;entryDy=0;entryPerimeter=0;" parent="1" target="bavvKywP6-cDirn1sBw_-25" edge="1">
          <mxGeometry relative="1" as="geometry">
            <mxPoint x="450" y="440" as="sourcePoint" />
            <mxPoint x="610" y="440" as="targetPoint" />
          </mxGeometry>
        </mxCell>
        <mxCell id="TfR0MbZ3rssl1hS43oWw-1" value="" style="endArrow=block;endSize=16;endFill=0;html=1;rounded=0;exitX=0.697;exitY=1.042;exitDx=0;exitDy=0;exitPerimeter=0;entryX=1.009;entryY=0.744;entryDx=0;entryDy=0;entryPerimeter=0;" edge="1" parent="1" source="bavvKywP6-cDirn1sBw_-27" target="bavvKywP6-cDirn1sBw_-34">
          <mxGeometry width="160" relative="1" as="geometry">
            <mxPoint x="650" y="600" as="sourcePoint" />
            <mxPoint x="710" y="710" as="targetPoint" />
            <Array as="points">
              <mxPoint x="712" y="713" />
            </Array>
          </mxGeometry>
        </mxCell>
      </root>
    </mxGraphModel>
  </diagram>
</mxfile>
